<?xml version="1.0" encoding="iso-8859-1"?>
<!-- Generator: Adobe Illustrator 19.0.0, SVG Export Plug-In . SVG Version: 6.00 Build 0)  -->
<svg version="1.1" id="Capa_1" xmlns="http://www.w3.org/2000/svg" xmlns:xlink="http://www.w3.org/1999/xlink" x="0px" y="0px"
	 viewBox="0 0 512.001 512.001" style="enable-background:new 0 0 512.001 512.001;" xml:space="preserve">
<path style="fill:#50C8A0;" d="M457.738,421.086L407.472,79.371c-0.996-6.767-6.904-11.871-13.745-11.871h-47.61h-76.235h-151.61
	c-6.841,0-12.75,5.104-13.745,11.871L54.263,421.084c-0.589,4,0.589,8.047,3.23,11.103c2.641,3.059,6.473,4.813,10.514,4.813
	h123.156h129.675h123.156c4.041,0,7.873-1.754,10.514-4.813C457.148,429.129,458.326,425.083,457.738,421.086z"/>
<g>
	<path style="fill:#37AA8C;" d="M169.932,273.685l-18.32-15.505c-0.172-0.146-0.351-0.278-0.531-0.405
		c3.959-9.578,1.519-21.03-6.806-28.076c-10.312-8.727-25.802-7.438-34.529,2.874s-7.438,25.802,2.874,34.529
		c8.325,7.046,20.023,7.559,28.814,2.071c0.156,0.157,0.316,0.311,0.488,0.457l18.32,15.505c3.162,2.676,7.894,2.282,10.57-0.88
		C173.488,281.093,173.094,276.361,169.932,273.685z"/>
	<path style="fill:#37AA8C;" d="M225.128,67.5c0.338,9.831,4.04,19.598,11.212,27.642c13.895,15.586,56.747,14.354,65.196,13.95
		l6.464-0.31l1.047-6.386c0.758-4.624,2.971-19.709,2.435-34.895h-41.599L225.128,67.5L225.128,67.5z"/>
</g>
<g>
	<polygon style="fill:#B4E66E;" points="381.543,95.5 322.189,95.5 293.811,95.5 239.475,95.5 231.176,95.571 194.824,95.5 
		130.457,95.5 84.342,409 186.56,409 325.44,409 427.658,409 	"/>
	<polygon style="fill:#B4E66E;" points="381.543,95.5 322.189,95.5 293.811,95.5 239.475,95.5 231.176,95.571 194.824,95.5 
		130.457,95.5 84.342,409 186.56,409 325.44,409 427.658,409 	"/>
</g>
<g>
	<path style="fill:#A0D755;" d="M361.654,342.618l-16.47-13.029c-0.177-0.14-0.359-0.266-0.544-0.388
		c3.64-9.704,0.823-21.069-7.731-27.835c-10.595-8.382-26.033-6.581-34.415,4.014c-8.382,10.595-6.581,26.033,4.014,34.415
		c8.553,6.767,20.262,6.893,28.867,1.117c0.161,0.152,0.326,0.301,0.503,0.44l16.47,13.029c3.248,2.57,7.965,2.02,10.535-1.229
		C365.452,349.904,364.901,345.188,361.654,342.618z"/>
	<path style="fill:#A0D755;" d="M169.932,273.685l-18.32-15.505c-0.172-0.146-0.351-0.278-0.531-0.405
		c3.959-9.578,1.519-21.03-6.806-28.076c-10.06-8.514-25.044-7.491-33.874,2.139l-4.004,27.223c1.445,3.001,3.521,5.754,6.223,8.041
		c8.325,7.046,20.023,7.559,28.814,2.071c0.156,0.157,0.316,0.311,0.488,0.457l18.32,15.505c3.162,2.676,7.894,2.282,10.57-0.88
		C173.488,281.093,173.094,276.361,169.932,273.685z"/>
	<path style="fill:#A0D755;" d="M217.827,149.759l-24.492-20.594c-0.254-0.214-0.522-0.401-0.794-0.575
		c2.313-7.301,0.192-15.61-6.025-20.837c-8.23-6.92-20.555-5.854-27.475,2.375s-5.854,20.555,2.375,27.475
		c6.217,5.227,14.767,5.891,21.562,2.359c0.219,0.239,0.449,0.47,0.703,0.684l24.492,20.594c3.17,2.666,7.901,2.257,10.567-0.914
		C221.406,157.156,220.997,152.425,217.827,149.759z"/>
	<path style="fill:#A0D755;" d="M301.536,109.091l6.464-0.31l1.047-6.386c0.232-1.416,0.601-3.815,0.985-6.895h-16.221h-54.336
		l-2.761,0.024C250.972,110.697,293.158,109.493,301.536,109.091z"/>
</g>
<path style="fill:#00C3FF;" d="M208.519,247.716l3.962-30.379c0.548-4.198,4.124-7.338,8.357-7.338h112.832
	c3.719,0,6.667-3.137,6.437-6.848L333.438,95.5h-11.249H293.81h-15.262l-2.723,55.367c-0.169,3.435-3.003,6.133-6.442,6.133H164.189
	c-3.223,0-5.951,2.379-6.389,5.572l-6.463,47.09l-5.375,39.163l-7.528,54.849c-0.532,3.874,2.479,7.326,6.389,7.326h69.076
	c3.617,0,6.526,2.974,6.448,6.59l-0.828,38.09l75.967,1.629l-8.508-96.426c-0.294-3.329-3.082-5.883-6.424-5.883h-65.638
	C211.021,255,208.016,251.577,208.519,247.716z"/>
<g>
	<path style="fill:#05ACD3;" d="M160.242,285.135c3.162,2.676,7.894,2.282,10.57-0.88c2.676-3.162,2.282-7.894-0.88-10.57
		l-18.32-15.505c-0.172-0.146-0.351-0.278-0.531-0.405c3.278-7.929,2.156-17.136-3.046-24.07l-2.075,15.12l-2.979,21.702
		L160.242,285.135z"/>
	<path style="fill:#05ACD3;" d="M203.13,157l5.043,4.24c3.17,2.666,7.901,2.257,10.567-0.914c0.835-0.993,1.368-2.139,1.609-3.327
		L203.13,157L203.13,157z"/>
	<path style="fill:#05ACD3;" d="M301.536,109.091l6.464-0.31l1.047-6.386c0.232-1.416,0.601-3.815,0.985-6.895h-16.221h-15.262
		l-0.652,13.268C288.669,109.564,298.043,109.259,301.536,109.091z"/>
</g>
<path style="fill:#FF507D;" d="M251.176,501.574c-10.965-8.283-65.663-51.338-65.663-85.587c0-38.867,31.62-70.487,70.487-70.487
	s70.487,31.62,70.487,70.487c0,34.206-54.699,77.295-65.664,85.585L256,505.219L251.176,501.574z"/>
<path style="fill:#EF1846;" d="M289.24,379.353c-8.906-10.125-21.267-15.13-33.595-15.029c-3.099,0.025-5.298-2.994-4.255-5.912
	l3.06-8.569c0.762-2.133-0.921-4.337-3.181-4.186c-36.669,2.442-65.755,33.053-65.755,70.33c0,34.249,54.698,77.304,65.663,85.587
	l4.824,3.645l-11.067-47.573c-0.7-3.008,1.821-5.821,4.88-5.392c13.987,1.961,28.74-2.762,39.038-14.17
	C303.774,421.55,303.948,396.077,289.24,379.353z"/>
<path style="fill:#FFFFFF;" d="M256,431c-12.407,0-22.5-10.093-22.5-22.5S243.593,386,256,386c12.407,0,22.5,10.093,22.5,22.5
	S268.408,431,256,431z"/>
<path style="fill:#FFDC64;" d="M302.968,104.711c-6.576-5.32-39.381-32.917-39.381-53.798C263.587,26.289,283.095,7,308,7
	s44.413,19.289,44.413,43.913c0,20.882-32.805,48.478-39.382,53.798l-5.031,4.07L302.968,104.711z"/>
<path style="fill:#EDB340;" d="M327.19,34.553c-4.827-5.78-11.594-8.771-18.43-8.977c-1.641-0.049-2.873-1.516-2.671-3.145
	l1.375-11.104c0.289-2.332-1.661-4.336-4-4.111c-22.697,2.18-39.877,20.589-39.877,43.697c0,20.88,32.805,48.478,39.381,53.798
	l5.032,4.07l-2.8-30.29c-0.151-1.632,1.122-3.064,2.761-3.061c7.013,0.013,14.03-2.901,19.034-8.753
	C334.816,57.531,334.904,43.79,327.19,34.553z"/>
<path style="fill:#FFFFFF;" d="M308,63c-6.893,0-12.5-5.607-12.5-12.5S301.107,38,308,38s12.5,5.607,12.5,12.5S314.893,63,308,63z"
	/>
<path style="fill:#FFDC64;" d="M213,124c-10.752,0-19.5-8.748-19.5-19.5S202.248,85,213,85s19.5,8.748,19.5,19.5
	S223.752,124,213,124z"/>
<path style="fill:#EDB340;" d="M213,100.765c0-5.807,2.565-11.013,6.605-14.589C217.539,85.429,215.321,85,213,85
	c-10.752,0-19.5,8.748-19.5,19.5S202.248,124,213,124c4.946,0,9.454-1.866,12.895-4.911C218.389,116.374,213,109.196,213,100.765z"
	/>
<path style="fill:#FF507D;" d="M165,256c-13.509,0-24.5-10.991-24.5-24.5S151.491,207,165,207s24.5,10.991,24.5,24.5
	S178.509,256,165,256z"/>
<path style="fill:#EF1846;" d="M165,226.404c0-5.97,2.147-11.447,5.709-15.701c0.978-1.168,0.383-2.979-1.112-3.266
	c-2.508-0.481-5.15-0.58-7.867-0.22c-11.558,1.53-20.56,11.283-21.192,22.924C139.77,244.264,151.04,256,165,256
	c5.111,0,9.86-1.574,13.791-4.262c1.257-0.859,1.092-2.757-0.268-3.441C170.511,244.265,165,235.968,165,226.404z"/>
<path style="fill:#50C8A0;" d="M357,328c-13.509,0-24.5-10.991-24.5-24.5S343.491,279,357,279s24.5,10.991,24.5,24.5
	S370.509,328,357,328z"/>
<path style="fill:#37AA8C;" d="M357,295.5c0-4.48,1.211-8.681,3.32-12.297c1.064-1.824-0.196-4.094-2.306-4.182
	c-1.869-0.078-3.792,0.058-5.75,0.44c-10.582,2.064-18.688,11.029-19.661,21.766C331.287,315.754,342.74,328,357,328
	c5.758,0,11.056-1.999,15.242-5.337c1.653-1.318,1.333-3.888-0.601-4.741C363.029,314.121,357,305.503,357,295.5z"/>
<path d="M349.5,334.091V348.5c0,4.142,3.358,7.5,7.5,7.5s7.5-3.358,7.5-7.5v-14.409c13.759-3.374,24-15.806,24-30.591
	c0-17.369-14.131-31.5-31.5-31.5s-31.5,14.131-31.5,31.5C325.5,318.285,335.741,330.716,349.5,334.091z M357,287
	c9.098,0,16.5,7.402,16.5,16.5S366.098,320,357,320s-16.5-7.402-16.5-16.5S347.902,287,357,287z"/>
<path d="M286,248h-70.458l4.043-31h120.337c0.976,0,1.956-0.153,2.859-0.524c3.13-1.288,4.898-4.319,4.705-7.44l-1.299-20.974
	c-0.245-3.955-3.524-7.036-7.486-7.036l0,0c-4.325,0-7.753,3.648-7.486,7.964l0.806,13.01H213c-3.767,0-6.95,2.794-7.437,6.53
	l-5.973,45.796c-0.172,1.316-0.071,2.671,0.42,3.903c1.18,2.967,3.984,4.771,6.99,4.771h72.133l1.842,20.876
	c0.342,3.872,3.584,6.841,7.471,6.841l0,0c4.402,0,7.858-3.774,7.471-8.159l-2.445-27.716C293.13,250.969,289.887,248,286,248z"/>
<path d="M464.663,420.067L414.397,78.353C412.9,68.175,404.014,60.5,393.727,60.5h-35.885c1.002-3.228,1.57-6.441,1.57-9.587
	C359.413,22.839,336.349,0,308,0s-51.413,22.839-51.413,50.913c0,3.145,0.568,6.359,1.57,9.587H118.272
	c-10.287,0-19.173,7.675-20.67,17.853L47.337,420.066c-0.885,6.012,0.886,12.098,4.858,16.697S61.93,444,68.007,444h118.914
	c6.203,11.177,15.821,23.229,28.813,36.072c17.722,17.52,35.18,30.013,35.915,30.537c1.302,0.928,2.827,1.392,4.352,1.392
	s3.049-0.464,4.352-1.392c0.735-0.523,18.192-13.017,35.915-30.537c12.992-12.843,22.609-24.895,28.813-36.072h118.914
	c6.077,0,11.84-2.638,15.812-7.237C463.777,432.165,465.548,426.079,464.663,420.067z M308,15c20.418,0,36.413,15.775,36.413,35.913
	c0,13.551-20.759,34.915-36.413,47.578c-15.655-12.665-36.413-34.028-36.413-47.578C271.587,30.775,287.582,15,308,15z M68.007,429
	c-2.347,0-3.801-1.279-4.459-2.041c-0.659-0.762-1.712-2.388-1.37-4.709l50.266-341.714c0.422-2.871,2.928-5.035,5.83-5.035h147.299
	c2.977,4.521,6.47,8.903,10.11,13h-41.575C229.263,82.126,221.606,78,213,78s-16.263,4.126-21.107,10.5h-61.005
	c-3.721,0-6.879,2.728-7.42,6.409L77.5,407.409c-0.317,2.156,0.319,4.344,1.744,5.994c1.425,1.649,3.497,2.598,5.676,2.598h93.593
	c0.001,4.153,0.669,8.491,1.984,13L68.007,429L68.007,429z M220.5,129.912c10.97-3.243,19-13.405,19-25.412
	c0-0.335-0.013-0.668-0.025-1h31.672L268.86,150H220.5V129.912z M213,116c-6.341,0-11.5-5.159-11.5-11.5S206.659,93,213,93
	s11.5,5.159,11.5,11.5S219.341,116,213,116z M179.981,401H93.604l43.761-297.5h49.16c-0.012,0.332-0.025,0.665-0.025,1
	c0,12.008,8.03,22.169,19,25.412V150H159c-3.748,0-6.921,2.767-7.43,6.48l-7.011,51.083c-6.761,5.782-11.059,14.365-11.059,23.938
	c0,6.646,2.074,12.814,5.602,17.901l-0.28-0.039l-8.251,60.117c-0.295,2.147,0.354,4.316,1.778,5.95
	c1.424,1.633,3.485,2.57,5.652,2.57h75.335l-0.735,33.847C196.008,363.114,183.989,380.633,179.981,401z M165,215
	c9.098,0,16.5,7.402,16.5,16.5S174.098,248,165,248s-16.5-7.402-16.5-16.5S155.902,215,165,215z M255.998,495.191
	c-20.81-15.72-62.485-52.682-62.485-79.204c0-34.456,28.031-62.487,62.487-62.487s62.487,28.031,62.487,62.487
	C318.487,442.473,276.807,479.458,255.998,495.191z M302.207,353.843l-2.438-27.625c-0.342-3.872-3.584-6.841-7.471-6.841l0,0
	c-4.402,0-7.858,3.774-7.471,8.159l1.514,17.164c-9.323-3.985-19.577-6.2-30.341-6.2c-9.957,0-19.472,1.904-28.223,5.341l0.72-33.1
	c0.021-0.948-0.102-1.903-0.433-2.792c-1.152-3.088-4.01-4.949-7.063-4.949h-74.4l5.849-42.616c1.617,0.706,3.308,1.271,5.051,1.7
	v17.101c0,4.107,3.164,7.688,7.269,7.811c4.247,0.128,7.731-3.278,7.731-7.497V262.09c13.759-3.374,24-15.806,24-30.591
	c0-17.369-14.131-31.5-31.5-31.5c-1.461,0-2.896,0.108-4.304,0.302L165.541,165H276c3.999,0,7.294-3.137,7.491-7.131l2.674-54.369
	h4.597c6.243,5.568,11.267,9.4,12.747,10.507c1.332,0.996,2.911,1.493,4.491,1.493s3.16-0.498,4.491-1.493
	c1.48-1.107,6.504-4.938,12.747-10.507h0.68l2.591,41.829c0.245,3.955,3.524,7.036,7.486,7.036l0,0c4.325,0,7.753-3.648,7.486-7.964
	l-2.534-40.901h33.686L418.396,401h-86.377C328.24,381.8,317.342,365.131,302.207,353.843z M448.453,426.959
	c-0.658,0.762-2.113,2.041-4.459,2.041H331.503c1.315-4.509,1.983-8.847,1.984-13h93.593c2.18,0,4.251-0.948,5.676-2.598
	c1.424-1.65,2.061-3.837,1.744-5.994l-45.968-312.5c-0.541-3.681-3.699-6.409-7.42-6.409h-40.794c3.641-4.097,7.133-8.479,10.11-13
	h43.299c2.901,0,5.408,2.165,5.83,5.035l50.266,341.715C450.165,424.571,449.111,426.197,448.453,426.959z"/>
<path d="M256,379c-16.266,0-29.5,13.234-29.5,29.5S239.734,438,256,438s29.5-13.234,29.5-29.5S272.266,379,256,379z M256,423
	c-7.995,0-14.5-6.505-14.5-14.5S248.005,394,256,394s14.5,6.505,14.5,14.5S263.995,423,256,423z"/>
<path d="M308,70c10.752,0,19.5-8.748,19.5-19.5S318.753,31,308,31s-19.5,8.748-19.5,19.5S297.248,70,308,70z M308,46
	c2.481,0,4.5,2.019,4.5,4.5S310.481,55,308,55s-4.5-2.019-4.5-4.5S305.52,46,308,46z"/>
<g>
</g>
<g>
</g>
<g>
</g>
<g>
</g>
<g>
</g>
<g>
</g>
<g>
</g>
<g>
</g>
<g>
</g>
<g>
</g>
<g>
</g>
<g>
</g>
<g>
</g>
<g>
</g>
<g>
</g>
</svg>
